<?xml version="1.0" encoding="UTF-8"?><svg id="Warstwa_2" xmlns="http://www.w3.org/2000/svg" viewBox="0 0 256 256"><defs><style>.cls-1{fill:#03723f;}.cls-2{fill:#fff;}</style></defs><g id="Warstwa_1-2"><rect id="Background" class="cls-1" width="256" height="256" rx="30.17" ry="30.17"/><path class="cls-2" d="M192.83,75.4c0,5.02-3.08,9.39-7.45,11.18v106.18H63.17l34.18-54.51c-1.05-1.86-1.7-3.89-1.7-6.16,0-6.72,5.43-12.15,12.15-12.15s12.15,5.43,12.15,12.15c0,1.05-.16,2.02-.4,3l11.66,5.1c2.19-2.43,5.43-4.05,8.99-4.05,1.46,0,2.83,.32,4.13,.73l28.99-51.92c-2.92-2.19-4.78-5.67-4.78-9.56,0-6.72,5.43-12.15,12.15-12.15,1.54,0,2.92,.32,4.29,.81l.4-.73v.89c4.37,1.78,7.45,6.16,7.45,11.18Zm-15.55,109.26V94.43l-26.65,47.7c1.05,1.86,1.7,3.89,1.7,6.16,0,6.72-5.43,12.15-12.15,12.15s-12.15-5.43-12.15-12.15l.08-.57-13.2-5.83c-2.02,1.46-4.45,2.35-7.13,2.35-1.46,0-2.83-.32-4.13-.81l-25.92,41.22h99.54Z"/><polygon class="cls-2" points="202.92 191.5 196.08 198.34 202.92 205.19 202.92 212.03 189.23 198.34 202.92 184.65 202.92 191.5"/><polygon class="cls-2" points="207.49 212.03 207.49 205.19 214.33 198.34 207.49 191.5 207.49 184.65 221.18 198.34 207.49 212.03"/></g></svg>